<svg id="Livello_1" data-name="Livello 1" xmlns="http://www.w3.org/2000/svg" viewBox="0 0 167.06 40"><defs><style>.cls-1{fill:#fff;}</style></defs><path class="cls-1" d="M156.18,28.51h3.66V20a4.65,4.65,0,0,0-.23-1.26,2.29,2.29,0,0,1,.92-.34,1.86,1.86,0,0,1,.8-.12,1.9,1.9,0,0,1,1.6.69,4.61,4.61,0,0,1,.46,2.52v7h3.67V21.18a17.72,17.72,0,0,0-.23-2.4,6.08,6.08,0,0,0-.8-2,4.48,4.48,0,0,0-1.61-1.26,6.59,6.59,0,0,0-2.52-.45,5.86,5.86,0,0,0-3.66,1.26,3.81,3.81,0,0,0-1.49-.81,8.63,8.63,0,0,0-3.78-.23,7,7,0,0,0-1.49.23c-.45.12-.91.12-1.37.23A4.78,4.78,0,0,1,149,16v12.6h3.66V18.55c.23,0,.46-.11.69-.11H154a2,2,0,0,1,1.61.68,4.75,4.75,0,0,1,.45,2.52Zm-13.51-3.78a2.36,2.36,0,0,1-3.9,0,5.49,5.49,0,0,1-.68-2.74,4.93,4.93,0,0,1,.68-2.75,2.36,2.36,0,0,1,3.9,0,4.85,4.85,0,0,1,.68,2.75,4.84,4.84,0,0,1-.68,2.74m4-5.49a8.65,8.65,0,0,0-1.26-2.18,6.5,6.5,0,0,0-2.07-1.37,6.57,6.57,0,0,0-2.63-.46,6.08,6.08,0,0,0-2.52.46,6.46,6.46,0,0,0-2.06,1.37,7,7,0,0,0-1.37,2.18,7.53,7.53,0,0,0-.46,2.75,8.19,8.19,0,0,0,.46,2.86A6.55,6.55,0,0,0,136,27a6.48,6.48,0,0,0,2.06,1.38,7,7,0,0,0,5.26,0A6.53,6.53,0,0,0,145.42,27a6,6,0,0,0,1.26-2.17,8,8,0,0,0,.45-2.86,7.36,7.36,0,0,0-.45-2.75m-23.25,5.49a5.6,5.6,0,0,0,3.32,3.67,9.9,9.9,0,0,0,3.09.57,14.85,14.85,0,0,0,2.18-.23,6.36,6.36,0,0,0,1.6-.46l-.57-3a3,3,0,0,1-1.37.34,6.32,6.32,0,0,1-1.49.11,3.33,3.33,0,0,1-2.64-.91,5,5,0,0,1-.8-2.75,4.21,4.21,0,0,1,.8-2.63,3,3,0,0,1,2.41-1,5.76,5.76,0,0,1,1.37.11c.35.12.8.23,1.15.34l.8-3a8.89,8.89,0,0,0-3.66-.8,6.1,6.1,0,0,0-2.87.57,6.36,6.36,0,0,0-3.43,3.66,6.62,6.62,0,0,0-.46,2.64,11.63,11.63,0,0,0,.57,2.74m-1.72.12a2.43,2.43,0,0,0-3.2,0,2.48,2.48,0,0,0,0,3.43h0a2.43,2.43,0,0,0,3.2,0,2.48,2.48,0,0,0,0-3.43h0M108.2,20.73a2.77,2.77,0,0,1,.23-.92,1.92,1.92,0,0,1,.46-.8,2.89,2.89,0,0,1,.69-.57,2.42,2.42,0,0,1,2.06,0,1.67,1.67,0,0,1,.69.57,1.8,1.8,0,0,1,.45.8,2.41,2.41,0,0,1,.12.92Zm-3.32,4.12A6,6,0,0,0,106.14,27a5.45,5.45,0,0,0,2.18,1.38,9.9,9.9,0,0,0,3.09.57,5.72,5.72,0,0,0,1.37-.11,4.22,4.22,0,0,0,1.26-.23c.35-.12.69-.12,1.15-.23.23-.12.57-.23.8-.35l-.46-3a6.81,6.81,0,0,1-1.6.46,13.23,13.23,0,0,1-2,.22,4.92,4.92,0,0,1-2.52-.68,2.34,2.34,0,0,1-1-1.83h8.36V21.87a7.41,7.41,0,0,0-1.6-5,5.62,5.62,0,0,0-4.35-1.71,5.15,5.15,0,0,0-2.29.45,12.07,12.07,0,0,0-2,1.26A7.14,7.14,0,0,0,105.23,19a8.59,8.59,0,0,0-.58,3.09,4.65,4.65,0,0,0,.23,2.75m-9.73-1.6a14.67,14.67,0,0,0,.23,2.29,5.35,5.35,0,0,0,.8,1.83,4.14,4.14,0,0,0,1.6,1.14,6.11,6.11,0,0,0,2.52.46,6.28,6.28,0,0,0,2.06-.23,6.91,6.91,0,0,0,1.49-.46l-.57-2.86c-.34.12-.8.23-1.14.34a4.53,4.53,0,0,1-1.26.12c-.81,0-1.38-.23-1.61-.69a3.64,3.64,0,0,1-.45-1.83V18.78h4.46V15.69H98.82V11.8l-3.67.45Zm-2.4-7.79H89.08V25.54c-.23,0-.45.11-.8.11h-.8c-.92,0-1.49-.23-1.72-.8a5.21,5.21,0,0,1-.46-2.64V15.34H81.64v7.22a19.5,19.5,0,0,0,.23,2.52A4.3,4.3,0,0,0,82.79,27a3.67,3.67,0,0,0,1.71,1.26,7.6,7.6,0,0,0,2.75.46,26.77,26.77,0,0,0,3.09-.23c.8-.11,1.61-.34,2.41-.46ZM68,28.51h3.66V18.44c.23,0,.46-.12.8-.12h.8c.92,0,1.49.23,1.72.69a4.71,4.71,0,0,1,.46,2.52v7h3.66V21.18a16.24,16.24,0,0,0-.23-2.4,4.42,4.42,0,0,0-.91-2,3.77,3.77,0,0,0-1.72-1.26,7.78,7.78,0,0,0-2.75-.45,29.17,29.17,0,0,0-3.09.22c-.8.12-1.6.35-2.4.46ZM65.27,10.08a2.29,2.29,0,0,0-3.09,0,2.22,2.22,0,1,0,3.09,3.2,2.22,2.22,0,0,0,0-3.2m.23,5.38H61.83V28.51H65.5ZM48.67,28.51h3.66V20a5.07,5.07,0,0,0-.23-1.26,2.24,2.24,0,0,1,.92-.34,1.86,1.86,0,0,1,.8-.12,1.92,1.92,0,0,1,1.6.69,4.71,4.71,0,0,1,.46,2.52v7h3.66V21.18a16.24,16.24,0,0,0-.23-2.4,5.66,5.66,0,0,0-.8-2,4.45,4.45,0,0,0-1.6-1.26,6.59,6.59,0,0,0-2.52-.45,5.86,5.86,0,0,0-3.66,1.26,3.81,3.81,0,0,0-1.49-.81,8.63,8.63,0,0,0-3.78-.23,7,7,0,0,0-1.49.23c-.46.12-.91.12-1.37.23a4.76,4.76,0,0,1-1.15.23v12.6h3.67V18.55c.23,0,.45-.11.68-.11h.69a1.93,1.93,0,0,1,1.6.68,4.63,4.63,0,0,1,.46,2.52ZM31,23.25a14.67,14.67,0,0,0,.23,2.29,5.55,5.55,0,0,0,.8,1.83,4.1,4.1,0,0,0,1.61,1.14,6,6,0,0,0,2.52.46,6.34,6.34,0,0,0,2.06-.23,7,7,0,0,0,1.48-.46l-.57-2.86c-.34.12-.8.23-1.14.34a4.49,4.49,0,0,1-1.26.12,1.67,1.67,0,0,1-1.61-.69,3.64,3.64,0,0,1-.45-1.83V18.78h4.46V15.69H34.7V11.8L31,12.25Zm-8.81,2.4a12,12,0,0,1-1.95-.57l-.69,3a11.76,11.76,0,0,0,4.47.81,7.37,7.37,0,0,0,4.12-1,3.49,3.49,0,0,0,1.49-3,3.62,3.62,0,0,0-.23-1.49,2.33,2.33,0,0,0-.69-1.15,5.08,5.08,0,0,0-1.26-.91,16.25,16.25,0,0,0-2.06-.92c-.34-.11-.68-.34-1-.46a2.08,2.08,0,0,1-.57-.34l-.34-.34c0-.12-.12-.23-.12-.35,0-.68.57-.91,1.72-.91a4.47,4.47,0,0,1,1.72.23l1.37.34.69-2.86a9.14,9.14,0,0,0-1.72-.46A16.15,16.15,0,0,0,24.85,15a6.17,6.17,0,0,0-3.78,1,3.49,3.49,0,0,0-1.37,2.86,6.51,6.51,0,0,0,.23,1.61,3.9,3.9,0,0,0,.8,1.14,4.51,4.51,0,0,0,1.26.8c.46.23,1,.46,1.6.69a12,12,0,0,1,1.72.8.87.87,0,0,1,.57.8.86.86,0,0,1-.46.81,6,6,0,0,1-1.49.22,4.44,4.44,0,0,1-1.71-.11M11.11,15.23c-.46,0-.8.11-1.26.11s-.69.12-1,.23-.57.12-.8.23l.46,3a3.61,3.61,0,0,1,1.6-.34,9.38,9.38,0,0,1,1.83-.12,2.85,2.85,0,0,1,1.95.57,2.44,2.44,0,0,1,.57,1.49v.35a2.41,2.41,0,0,0-.92-.12c-.45,0-.8-.11-1.25-.11a12.15,12.15,0,0,0-2.07.23,5.93,5.93,0,0,0-1.83.68A4.57,4.57,0,0,0,7.1,22.67a3.82,3.82,0,0,0-.45,1.95A6.44,6.44,0,0,0,7,26.68a3.41,3.41,0,0,0,1.14,1.37,5.26,5.26,0,0,0,1.72.69,14.81,14.81,0,0,0,2.29.23,33.11,33.11,0,0,0,3.44-.23,15.58,15.58,0,0,0,2.17-.46V20.61a12,12,0,0,0-.23-2.17,3.17,3.17,0,0,0-.91-1.72,5.33,5.33,0,0,0-1.72-1,11.27,11.27,0,0,0-2.75-.35c-.23-.22-.57-.22-1-.11m0,10.42a1.08,1.08,0,0,1-.57-1.26,1.21,1.21,0,0,1,.23-.69,1.07,1.07,0,0,1,.57-.45,2,2,0,0,1,.8-.23c.34,0,.69-.12,1-.12H14a3.73,3.73,0,0,1,.69.12v2.86c-.23,0-.57.11-.8.11h-1a3.82,3.82,0,0,1-1.72-.34m-5.38.11a3.46,3.46,0,0,1-1-.22,1.14,1.14,0,0,1-.57-.46,1.57,1.57,0,0,1-.23-.69c0-.34-.12-.57-.12-.92V9.28L.12,9.85V24.16A8.47,8.47,0,0,0,.35,26a2.75,2.75,0,0,0,.8,1.38,4.49,4.49,0,0,0,1.6.91,9.74,9.74,0,0,0,2.64.35Z"/></svg>