<svg xmlns="http://www.w3.org/2000/svg" viewBox="0 0 169.04 40"><defs><style>.cls-1{fill:#f2007d;}.cls-2{fill:#fff;}</style></defs><g id="Layer_2" data-name="Layer 2"><g id="Layer_1-2" data-name="Layer 1"><rect class="cls-1" width="169.04" height="40"/><path class="cls-2" d="M148.11,28.27h3.23V22c0-.42,0-.81,0-1.18a5.23,5.23,0,0,0-.2-1.06,2.93,2.93,0,0,1,.77-.32,2.8,2.8,0,0,1,.73-.13A1.5,1.5,0,0,1,154,20a4.41,4.41,0,0,1,.4,2.21v6.06h3.23V21.82a10.57,10.57,0,0,0-.19-2.12,4,4,0,0,0-.72-1.65A3.32,3.32,0,0,0,155.3,17a5.71,5.71,0,0,0-2.24-.38,5.83,5.83,0,0,0-1.66.28,5.32,5.32,0,0,0-1.6.79,4.54,4.54,0,0,0-1.27-.75,5.35,5.35,0,0,0-2-.32c-.42,0-.85,0-1.28.06s-.86.08-1.27.15-.8.14-1.17.22l-1,.22v11h3.24V19.46l.63-.08q.31,0,.63,0a1.48,1.48,0,0,1,1.37.65,4.39,4.39,0,0,1,.41,2.21Zm-11.8-3.35a2,2,0,0,1-1.7.88,2,2,0,0,1-1.72-.88,4.17,4.17,0,0,1-.61-2.38,4.08,4.08,0,0,1,.61-2.36,2,2,0,0,1,1.72-.85,2,2,0,0,1,1.7.85,4.08,4.08,0,0,1,.6,2.36,4.17,4.17,0,0,1-.6,2.38m3.48-4.83a5.45,5.45,0,0,0-1.15-1.89A5.14,5.14,0,0,0,136.87,17a6.13,6.13,0,0,0-4.51,0,5.28,5.28,0,0,0-1.78,1.22,5.49,5.49,0,0,0-1.17,1.89,6.64,6.64,0,0,0-.43,2.45A6.9,6.9,0,0,0,129.4,25a5.3,5.3,0,0,0,1.15,1.91,5,5,0,0,0,1.77,1.23,5.81,5.81,0,0,0,2.29.43,5.91,5.91,0,0,0,2.31-.43A5.08,5.08,0,0,0,139.81,25a7.13,7.13,0,0,0,.39-2.46,6.85,6.85,0,0,0-.41-2.45m-20.35,4.85a5,5,0,0,0,1.07,1.9,5.08,5.08,0,0,0,1.85,1.27,7.08,7.08,0,0,0,2.69.46,9,9,0,0,0,1.87-.17,7.58,7.58,0,0,0,1.41-.41l-.45-2.65a5.78,5.78,0,0,1-1.24.35,8.26,8.26,0,0,1-1.26.11,2.78,2.78,0,0,1-2.31-.85,3.82,3.82,0,0,1-.66-2.39,3.64,3.64,0,0,1,.7-2.34,2.55,2.55,0,0,1,2.14-.89,5.13,5.13,0,0,1,1.22.13,7.73,7.73,0,0,1,1,.3l.68-2.58a8.49,8.49,0,0,0-1.48-.47,7.89,7.89,0,0,0-1.67-.16,6.1,6.1,0,0,0-2.48.48,5.65,5.65,0,0,0-1.84,1.29,5.54,5.54,0,0,0-1.16,1.91,6.67,6.67,0,0,0-.4,2.33,8.2,8.2,0,0,0,.33,2.38m-1.49.13a2.18,2.18,0,0,0-2.8,0,2.09,2.09,0,0,0,0,3,2.18,2.18,0,0,0,2.8,0,2.11,2.11,0,0,0,0-3m-11.8-3.66a4.56,4.56,0,0,1,.2-.81,2.17,2.17,0,0,1,.41-.71,2,2,0,0,1,.65-.49,2.2,2.2,0,0,1,.93-.18,2.09,2.09,0,0,1,1,.19,1.93,1.93,0,0,1,.62.5,2,2,0,0,1,.37.7,3.12,3.12,0,0,1,.14.8Zm-3,3.58a4.92,4.92,0,0,0,1.1,1.88,5.29,5.29,0,0,0,1.89,1.25,7.27,7.27,0,0,0,2.68.45c.41,0,.81,0,1.22-.06s.78-.1,1.14-.16.67-.15,1-.23a6.36,6.36,0,0,0,.7-.26l-.44-2.63a6.47,6.47,0,0,1-1.4.4,9.16,9.16,0,0,1-1.74.17,3.77,3.77,0,0,1-2.22-.59,2.14,2.14,0,0,1-.93-1.58h7.34c0-.18,0-.38,0-.6s0-.43,0-.62A6.12,6.12,0,0,0,112.14,18a5,5,0,0,0-3.84-1.49,5.47,5.47,0,0,0-2,.39,5.07,5.07,0,0,0-1.75,1.15,5.83,5.83,0,0,0-1.23,1.9,7,7,0,0,0-.46,2.66,7.36,7.36,0,0,0,.36,2.34M94.71,23.6a9,9,0,0,0,.21,2,3.65,3.65,0,0,0,.72,1.55,3.44,3.44,0,0,0,1.39,1,5.78,5.78,0,0,0,2.2.36,7.84,7.84,0,0,0,1.75-.17,10.09,10.09,0,0,0,1.31-.42l-.46-2.51a6.42,6.42,0,0,1-1,.27,6.77,6.77,0,0,1-1.07.1,1.56,1.56,0,0,1-1.45-.61,3.2,3.2,0,0,1-.36-1.63v-4h3.89V16.85H97.94V13.49L94.71,14Zm-2.06-6.75H89.41v8.82l-.69.07-.74,0a1.65,1.65,0,0,1-1.54-.69A4.7,4.7,0,0,1,86,22.82v-6H82.79v6.36A9,9,0,0,0,83,25.36,4.24,4.24,0,0,0,83.84,27a3.6,3.6,0,0,0,1.53,1.1,6.49,6.49,0,0,0,2.42.39,17.17,17.17,0,0,0,2.73-.21,16.58,16.58,0,0,0,2.13-.44ZM71,28.27h3.23V19.46c.2,0,.43-.06.69-.08l.74,0a1.68,1.68,0,0,1,1.54.65,4.27,4.27,0,0,1,.42,2.21v6.06h3.23V21.82a8.64,8.64,0,0,0-.24-2.12,4.24,4.24,0,0,0-.8-1.65A3.69,3.69,0,0,0,78.27,17a6.75,6.75,0,0,0-2.42-.38,17.21,17.21,0,0,0-2.74.21,18.27,18.27,0,0,0-2.12.44ZM68.54,12.15a2,2,0,0,0-1.35-.51,2,2,0,0,0-1.36.51,1.79,1.79,0,0,0-.57,1.4,1.77,1.77,0,0,0,.57,1.4,2,2,0,0,0,1.36.51A2,2,0,0,0,68.54,15a1.75,1.75,0,0,0,.58-1.4,1.76,1.76,0,0,0-.58-1.4m.28,4.7H65.58V28.27h3.24ZM54,28.27h3.24V22c0-.42,0-.81,0-1.18A5.22,5.22,0,0,0,57,19.8a2.93,2.93,0,0,1,.77-.32,2.74,2.74,0,0,1,.73-.13,1.48,1.48,0,0,1,1.37.65,4.39,4.39,0,0,1,.41,2.21v6.06h3.23V21.82a10.53,10.53,0,0,0-.2-2.12,4.12,4.12,0,0,0-.71-1.65A3.45,3.45,0,0,0,61.21,17a6,6,0,0,0-3.91-.1,5.38,5.38,0,0,0-1.59.79,4.68,4.68,0,0,0-1.27-.75,5.42,5.42,0,0,0-2-.32c-.42,0-.85,0-1.28.06a12.61,12.61,0,0,0-1.27.15c-.41.06-.81.14-1.17.22l-1,.22v11H51V19.46l.63-.08.63,0a1.5,1.5,0,0,1,1.38.65,4.41,4.41,0,0,1,.4,2.21ZM38.64,23.6a9,9,0,0,0,.21,2,3.66,3.66,0,0,0,.73,1.55,3.44,3.44,0,0,0,1.39,1,5.76,5.76,0,0,0,2.19.36,8,8,0,0,0,1.76-.17,9.46,9.46,0,0,0,1.3-.42l-.46-2.51a6.59,6.59,0,0,1-1,.27,6.78,6.78,0,0,1-1.08.1,1.55,1.55,0,0,1-1.44-.61,3.2,3.2,0,0,1-.36-1.63v-4h3.88V16.85H41.88V13.49L38.64,14Zm-7.77,2.16a10.25,10.25,0,0,1-1.69-.51l-.54,2.63a9.44,9.44,0,0,0,1.4.43,10,10,0,0,0,2.53.26,6.31,6.31,0,0,0,3.59-.86,2.89,2.89,0,0,0,1.27-2.56,4.31,4.31,0,0,0-.16-1.25,2.61,2.61,0,0,0-.57-1,4.27,4.27,0,0,0-1.09-.83,14,14,0,0,0-1.76-.77A9,9,0,0,1,33,21a3.39,3.39,0,0,1-.53-.31.69.69,0,0,1-.26-.29.78.78,0,0,1-.07-.35c0-.56.51-.85,1.52-.85a6.19,6.19,0,0,1,1.49.16,12.09,12.09,0,0,1,1.23.34l.56-2.52a10.69,10.69,0,0,0-3.52-.58,5.17,5.17,0,0,0-3.27.93A3,3,0,0,0,28.94,20a3.71,3.71,0,0,0,.24,1.41,2.93,2.93,0,0,0,.67,1,4,4,0,0,0,1.06.73c.41.2.87.4,1.38.59a8.27,8.27,0,0,1,1.45.66.81.81,0,0,1,.48.68.67.67,0,0,1-.37.67,3.15,3.15,0,0,1-1.26.18,7.81,7.81,0,0,1-1.72-.19M21.16,16.6l-1.05.13c-.33.05-.64.11-.92.18a7.21,7.21,0,0,0-.71.18l.41,2.61a6.73,6.73,0,0,1,1.39-.34,11.07,11.07,0,0,1,1.63-.12,2.46,2.46,0,0,1,1.74.5,1.79,1.79,0,0,1,.5,1.32v.31a4.34,4.34,0,0,0-.8-.14,9.17,9.17,0,0,0-1.11-.06,8.23,8.23,0,0,0-1.81.19,4.89,4.89,0,0,0-1.54.59,3.16,3.16,0,0,0-1.07,1.11,3.3,3.3,0,0,0-.4,1.69,4,4,0,0,0,.34,1.76,3,3,0,0,0,1,1.16,4.33,4.33,0,0,0,1.55.64,9.57,9.57,0,0,0,2,.2,18.36,18.36,0,0,0,3-.21c.82-.13,1.47-.25,1.93-.36V21.22A7.31,7.31,0,0,0,27,19.28a3.47,3.47,0,0,0-.81-1.47,3.79,3.79,0,0,0-1.53-.94,7.76,7.76,0,0,0-2.39-.32c-.38,0-.75,0-1.12.05m0,9.12a1.12,1.12,0,0,1-.51-1A1.18,1.18,0,0,1,20.8,24a1.22,1.22,0,0,1,.48-.42,2.11,2.11,0,0,1,.71-.2,5.67,5.67,0,0,1,.85-.06,6.39,6.39,0,0,1,.72.05c.26,0,.46.05.59.08v2.46a5.54,5.54,0,0,1-.7.06c-.29,0-.59,0-.91,0a2.89,2.89,0,0,1-1.4-.29m-4.7.1a2.94,2.94,0,0,1-.93-.2,1.4,1.4,0,0,1-.54-.39,1.32,1.32,0,0,1-.24-.58,3.87,3.87,0,0,1-.07-.79V11.43L11.43,12V24.52a6.78,6.78,0,0,0,.18,1.63,2.52,2.52,0,0,0,.7,1.24,3.3,3.3,0,0,0,1.38.79,8.21,8.21,0,0,0,2.29.31Z"/></g></g></svg>