<?xml version="1.0" standalone="no"?>
<!DOCTYPE svg PUBLIC "-//W3C//DTD SVG 20010904//EN"
 "http://www.w3.org/TR/2001/REC-SVG-20010904/DTD/svg10.dtd">
<svg version="1.0" xmlns="http://www.w3.org/2000/svg"
 width="512.000000pt" height="512.000000pt" viewBox="0 0 512.000000 512.000000"
 preserveAspectRatio="xMidYMid meet">

<g transform="translate(0.000000,512.000000) scale(0.100000,-0.100000)"
fill="#000000" stroke="none">
<path d="M2563 5073 c-38 -62 -76 -103 -93 -103 -12 0 -39 -29 -75 -81 -54
-75 -59 -80 -86 -74 -18 4 -29 3 -29 -5 0 -11 -88 -153 -111 -179 -11 -12 -15
-11 -30 7 l-17 22 -13 -23 c-8 -12 -23 -40 -34 -62 -26 -53 -34 -57 -63 -34
-14 10 -30 19 -37 19 -12 0 -95 -117 -95 -136 -1 -5 -12 -22 -26 -39 l-24 -30
-20 25 -19 25 -18 -25 c-10 -14 -22 -32 -28 -42 -31 -53 -89 -130 -100 -135
-8 -2 -27 5 -43 17 -17 12 -35 21 -41 19 -5 -2 -30 -42 -54 -89 -32 -63 -49
-86 -65 -88 -14 -2 -22 2 -22 11 0 8 -8 25 -18 37 -18 22 -18 22 -72 -85 -67
-129 -74 -136 -95 -96 -8 17 -19 31 -23 31 -4 0 -31 -49 -61 -109 l-53 -110
11 -153 c6 -84 16 -175 22 -203 5 -27 14 -104 19 -170 14 -187 64 -543 78
-557 11 -11 38 24 74 97 48 96 76 188 83 280 4 50 15 115 25 145 10 30 20 82
24 114 20 181 182 340 402 396 116 30 216 26 402 -14 320 -71 392 -72 622 -11
173 46 352 58 474 31 108 -25 219 -83 288 -152 77 -77 115 -151 133 -261 8
-48 18 -106 24 -128 14 -57 31 -157 31 -186 1 -55 97 -278 134 -308 20 -17 17
-26 71 214 34 149 62 353 85 625 17 201 14 234 -24 314 -18 39 -41 90 -51 113
-20 46 -37 45 -49 -2 -12 -49 -36 -27 -89 85 -29 60 -58 109 -65 110 -8 0 -19
-13 -25 -30 -17 -46 -42 -38 -80 28 -19 32 -38 71 -44 87 -12 38 -23 40 -66
10 -37 -24 -38 -24 -57 -5 -11 11 -43 56 -71 100 -52 81 -72 96 -82 60 -10
-40 -33 -18 -90 85 -32 58 -64 105 -71 105 -8 0 -25 -9 -40 -21 -14 -11 -31
-19 -38 -17 -6 2 -24 33 -39 68 l-27 63 -18 -21 c-10 -12 -24 -22 -30 -22 -14
0 -43 44 -100 155 l-41 80 -44 0 c-43 0 -45 2 -88 65 -38 57 -47 65 -72 62
-25 -2 -32 5 -66 63 -20 36 -41 65 -45 65 -4 0 -15 -12 -25 -27z"/>
<path d="M1556 3330 c-38 -5 -73 -13 -78 -18 -5 -5 -8 -29 -6 -53 3 -50 -3
-49 118 -23 122 27 478 25 674 -4 76 -11 145 -18 153 -15 8 3 13 15 11 27 -2
17 -16 24 -77 38 -193 45 -617 70 -795 48z"/>
<path d="M3205 3335 c-11 -2 -69 -9 -130 -15 -105 -12 -300 -46 -317 -56 -11
-7 -10 -41 1 -48 5 -3 73 4 152 15 198 30 553 32 679 5 123 -26 115 -28 118
30 3 49 2 52 -25 58 -31 7 -446 17 -478 11z"/>
<path d="M1985 3010 c-68 -15 -95 -44 -95 -100 0 -60 80 -107 155 -90 62 14
94 48 95 101 0 61 -79 107 -155 89z"/>
<path d="M3127 3005 c-55 -19 -77 -42 -77 -82 0 -42 14 -69 42 -84 116 -62
251 22 198 122 -23 42 -105 64 -163 44z"/>
<path d="M3811 2279 c-225 -250 -641 -508 -929 -575 -64 -15 -65 -15 -156 17
-105 36 -167 36 -251 -1 -40 -17 -63 -21 -110 -17 -139 11 -408 128 -630 274
-148 97 -224 160 -338 275 -114 117 -115 88 -2 -66 77 -106 208 -239 342 -347
140 -114 218 -166 358 -239 55 -29 116 -63 135 -76 49 -32 329 -144 362 -144
35 0 196 51 300 96 44 19 82 34 84 34 2 0 4 -70 4 -154 l0 -155 -32 -24 c-96
-72 -334 -227 -349 -227 -10 0 -100 58 -201 128 l-183 128 -5 149 -5 150 -28
3 c-37 5 -161 -22 -219 -47 -53 -22 -56 -30 -60 -130 l-3 -65 -90 -16 c-49
-10 -139 -25 -200 -34 -143 -23 -474 -107 -548 -140 -74 -32 -146 -94 -261
-223 -157 -176 -187 -215 -176 -228 14 -17 146 -94 270 -157 359 -183 854
-327 1280 -373 150 -17 644 -20 770 -5 414 47 758 130 1090 265 190 77 468
221 534 277 l31 26 -25 34 c-95 129 -259 299 -316 328 -16 8 -36 19 -44 26
-50 38 -463 143 -724 184 -197 31 -186 24 -186 114 0 62 -4 78 -20 93 -27 26
-106 53 -195 66 -42 7 -77 16 -78 22 -1 5 34 29 78 53 276 151 552 387 703
599 128 180 139 232 23 102z"/>
</g>
</svg>
